HIERARCHY
ROOT Hips
{
	OFFSET 0.000000 0.000000 0.000000
	CHANNELS 6 Xposition Yposition Zposition Zrotation Yrotation Xrotation 
	JOINT RightUpLeg
	{
		OFFSET -2.901024 0.000000 0.000000
		CHANNELS 3 Zrotation Yrotation Xrotation
		JOINT RightLeg
		{
			OFFSET 0.000000 -9.114855 0.000000
			CHANNELS 3 Zrotation Yrotation Xrotation
			JOINT RightFoot
			{
				OFFSET 0.000000 -8.902458 0.000000
				CHANNELS 3 Zrotation Yrotation Xrotation
				End Site
				{
					OFFSET 0.000000 0.000000 0.000000
				}
			}
		}
	}
	JOINT LeftUpLeg
	{
		OFFSET 2.901024 0.000000 0.000000
		CHANNELS 3 Zrotation Yrotation Xrotation
		JOINT LeftLeg
		{
			OFFSET 0.000000 -9.114855 0.000000
			CHANNELS 3 Zrotation Yrotation Xrotation
			JOINT LeftFoot
			{
				OFFSET 0.000000 -8.902458 0.000000
				CHANNELS 3 Zrotation Yrotation Xrotation
				End Site
				{
					OFFSET 0.000000 0.000000 0.000000
				}
			}
		}
	}
	JOINT Spine
	{
		OFFSET 0.000000 5.156586 0.000000
		CHANNELS 3 Zrotation Yrotation Xrotation
		JOINT Spine1
		{
			OFFSET 0.000000 5.096650 0.000000
			CHANNELS 3 Zrotation Yrotation Xrotation
			JOINT Neck
			{
				OFFSET 0.000000 2.413497 0.000000
				CHANNELS 3 Zrotation Yrotation Xrotation
				JOINT Head
				{
					OFFSET 0.000000 2.324810 0.000000
					CHANNELS 3 Zrotation Yrotation Xrotation
					End Site
					{
						OFFSET 0.000000 0.000000 0.000000
					}
				}
			}
			JOINT LeftArm
			{
				OFFSET 3.322280 0.000000 0.000000
				CHANNELS 3 Zrotation Yrotation Xrotation
				JOINT LeftForeArm
				{
					OFFSET 5.805871 0.000000 0.000000
					CHANNELS 3 Zrotation Yrotation Xrotation
					JOINT LeftHand
					{
						OFFSET 4.961967 0.000000 0.000000
						CHANNELS 3 Zrotation Yrotation Xrotation
						End Site
						{
							OFFSET 0.000000 0.000000 0.000000
						}
					}
				}
			}
			JOINT RightArm
			{
				OFFSET -3.322280 0.000000 0.000000
				CHANNELS 3 Zrotation Yrotation Xrotation
				JOINT RightForeArm
				{
					OFFSET -5.805871 0.000000 0.000000
					CHANNELS 3 Zrotation Yrotation Xrotation
					JOINT RightHand
					{
						OFFSET -4.961967 0.000000 0.000000
						CHANNELS 3 Zrotation Yrotation Xrotation
						End Site
						{
							OFFSET 0.000000 0.000000 0.000000
						}
					}
				}
			}
		}
	}
}
MOTION
Frames: 20
Frame Time: 0.041667
0.000000 0.000000 0.000000 0.000000 0.000000 0.000000 0.000000 0.000000 0.000000 0.000000 0.000000 0.000000 0.000000 0.000000 0.000000 0.000000 0.000000 0.000000 0.000000 0.000000 0.000000 0.000000 0.000000 0.000000 0.000000 0.000000 0.000000 0.000000 0.000000 0.000000 0.000000 0.000000 0.000000 0.000000 0.000000 0.000000 0.000000 0.000000 0.000000 0.000000 0.000000 0.000000 0.000000 0.000000 0.000000 0.000000 0.000000 0.000000 0.000000 0.000000 0.000000 0.000000 0.000000 0.000000 
-0.022163 -0.008154 -0.025904 -4.665817 -31.917040 -172.810575 -60.460111 83.274978 -58.277756 53.239955 -54.559736 -16.411976 0.000000 0.000000 0.000000 160.802884 -57.251059 -161.732172 138.738778 -49.585941 -169.319515 0.000000 0.000000 0.000000 15.154839 35.707508 15.807363 2.305227 -38.359947 28.850381 127.234103 -48.365017 -111.002520 0.000000 0.000000 0.000000 -3.575484 -30.611777 -81.262319 -33.717215 -51.897318 -48.854817 0.000000 0.000000 0.000000 27.239701 29.287923 -112.359385 68.673461 -11.491849 63.050794 0.000000 0.000000 0.000000 
0.005211 -0.019597 -0.062056 -4.336329 -31.128102 -172.568868 -66.656738 83.962136 -64.231850 54.050132 -54.655307 -17.761738 0.000000 0.000000 0.000000 158.784208 -57.978716 -159.460807 136.699857 -48.856579 -169.090704 0.000000 0.000000 0.000000 15.257852 35.860597 15.736020 2.260376 -38.503368 28.372316 127.615446 -48.759734 -111.248079 0.000000 0.000000 0.000000 -5.075967 -27.856254 -79.234006 -37.397888 -55.950365 -46.601906 0.000000 0.000000 0.000000 28.914885 28.482980 -110.819382 63.578563 -10.831241 66.331423 0.000000 0.000000 0.000000 
-0.104046 0.007043 -0.141708 -3.398846 -28.946786 -172.322135 -79.643544 82.854798 -77.326511 58.226406 -56.081676 -20.958873 0.000000 0.000000 0.000000 157.726608 -58.993191 -157.770239 137.628817 -48.151830 -170.865337 0.000000 0.000000 0.000000 14.804104 36.809979 15.069716 3.015985 -38.505991 27.713450 127.732078 -46.905457 -111.669679 0.000000 0.000000 0.000000 -6.921876 -20.318694 -77.822308 -11.799673 -43.272889 -72.659839 0.000000 0.000000 0.000000 30.935696 22.941904 -110.751483 45.809249 0.700119 51.032486 0.000000 0.000000 0.000000 
-0.216540 -0.016131 -0.226708 -2.905679 -27.037514 -172.499351 -90.445700 82.440957 -87.710796 59.807930 -57.142886 -23.595821 0.000000 0.000000 0.000000 156.760778 -60.210412 -156.692230 138.899055 -46.627229 -172.668125 0.000000 0.000000 0.000000 15.298019 36.963181 16.310994 3.201915 -38.909317 26.217225 128.698946 -47.739501 -112.834295 0.000000 0.000000 0.000000 -9.697290 -16.411201 -76.908005 -5.179023 -39.740609 -76.702355 0.000000 0.000000 0.000000 30.166746 20.731750 -111.783101 32.508641 2.795913 47.251928 0.000000 0.000000 0.000000 
-0.167667 -0.118195 -0.227952 -1.900587 -24.092184 -172.409479 -98.233249 82.155797 -95.704501 62.104076 -58.624169 -26.167247 0.000000 0.000000 0.000000 156.948827 -61.673371 -157.127081 139.885170 -45.782447 -173.614475 0.000000 0.000000 0.000000 14.805200 37.687830 14.899060 3.183444 -39.564622 27.035065 127.255467 -46.241525 -111.625420 0.000000 0.000000 0.000000 -10.341548 -14.079470 -77.114905 -1.750648 -32.749446 -78.234004 0.000000 0.000000 0.000000 28.403193 19.743615 -112.042990 22.545384 3.728136 44.348900 0.000000 0.000000 0.000000 
-0.114143 0.004307 -0.159180 -2.005978 -22.408614 -172.062738 -108.671288 82.341318 -105.849962 61.023021 -59.729936 -27.706408 0.000000 0.000000 0.000000 156.451453 -62.417834 -156.437451 141.785097 -44.704568 -175.128769 0.000000 0.000000 0.000000 14.252726 38.076754 15.013099 3.272276 -40.185862 26.279718 124.796927 -45.406022 -108.162398 0.000000 0.000000 0.000000 -6.012478 -14.541696 -81.018925 -0.576092 -26.239876 -80.546570 0.000000 0.000000 0.000000 25.106266 19.238008 -114.483376 17.168176 4.659351 38.194609 0.000000 0.000000 0.000000 
-0.139549 -0.106734 -0.188828 -1.624067 -19.714219 -171.773807 -109.968907 83.566176 -107.579769 57.864509 -60.659545 -27.332909 0.000000 0.000000 0.000000 157.880246 -62.934121 -158.056520 143.975989 -45.163601 -176.206832 0.000000 0.000000 0.000000 13.943477 38.454020 13.879612 3.505907 -40.043104 25.855346 122.469076 -42.834046 -105.263850 0.000000 0.000000 0.000000 -5.407014 -15.317449 -80.839947 1.260418 -20.402163 -81.368508 0.000000 0.000000 0.000000 22.254679 20.343271 -115.525560 10.946574 4.730883 33.756639 0.000000 0.000000 0.000000 
-0.195765 -0.108135 -0.198180 -1.196543 -18.477045 -171.690055 -113.839685 83.213404 -111.517339 59.850871 -60.915630 -28.681446 0.000000 0.000000 0.000000 157.268425 -63.682341 -157.041868 143.803800 -44.628893 -176.634675 0.000000 0.000000 0.000000 13.095912 39.210046 12.510301 3.403985 -40.386410 27.253001 121.752493 -41.198424 -103.698131 0.000000 0.000000 0.000000 -1.971932 -14.041488 -83.073364 0.900590 -18.074520 -83.384288 0.000000 0.000000 0.000000 18.710426 19.133281 -117.446032 10.820285 5.393787 27.571652 0.000000 0.000000 0.000000 
-0.066305 -0.047879 -0.159282 -0.999099 -17.987095 -171.466011 -117.895499 82.912384 -115.546419 59.494274 -61.357509 -28.975643 0.000000 0.000000 0.000000 155.634521 -63.724982 -155.008712 142.480287 -44.044157 -176.567575 0.000000 0.000000 0.000000 13.127696 39.237521 12.810765 3.282541 -40.550539 27.418801 121.418757 -40.939348 -102.449662 0.000000 0.000000 0.000000 -0.055637 -14.206842 -85.299118 -0.018882 -19.039875 -82.955161 0.000000 0.000000 0.000000 17.000124 20.140710 -118.724971 12.727921 5.518089 30.470847 0.000000 0.000000 0.000000 
-0.082178 -0.034026 -0.115162 -0.229012 -16.554575 -170.937901 -117.254868 82.438484 -115.316870 59.712546 -61.802284 -29.180467 0.000000 0.000000 0.000000 156.108932 -64.502237 -155.177718 144.399953 -43.992668 -177.355096 0.000000 0.000000 0.000000 12.894253 39.593435 11.846410 3.523744 -40.328234 27.538075 120.518961 -39.007285 -100.669830 0.000000 0.000000 0.000000 0.240091 -14.357560 -84.701511 0.560071 -16.607369 -83.108048 0.000000 0.000000 0.000000 14.812937 21.028445 -119.366490 11.315066 5.819176 29.809565 0.000000 0.000000 0.000000 
-0.061685 -0.074149 -0.084222 -0.269931 -16.951372 -170.510700 -117.586351 81.949921 -115.650826 60.179649 -61.544922 -29.233203 0.000000 0.000000 0.000000 154.396303 -64.267695 -153.096423 143.933833 -44.165533 -176.871983 0.000000 0.000000 0.000000 12.316893 39.755946 10.918826 3.727283 -40.334166 27.850276 120.013254 -38.618573 -99.658020 0.000000 0.000000 0.000000 2.556763 -13.934870 -85.521837 0.075623 -17.029005 -84.861487 0.000000 0.000000 0.000000 14.021399 20.166752 -119.917932 11.713759 7.184510 25.596197 0.000000 0.000000 0.000000 
-0.133045 -0.102974 -0.180238 -0.820884 -19.169033 -170.813892 -114.672592 82.734853 -112.418760 59.041043 -60.584925 -27.345146 0.000000 0.000000 0.000000 154.234455 -63.456692 -153.597854 141.099086 -44.521362 -175.216414 0.000000 0.000000 0.000000 13.227069 38.749917 12.187312 3.871751 -39.786241 27.107361 121.144538 -42.364047 -102.607097 0.000000 0.000000 0.000000 0.134994 -15.906203 -85.508272 -1.519778 -23.321946 -83.914488 0.000000 0.000000 0.000000 15.502735 21.881739 -120.381893 16.998836 6.701014 29.411174 0.000000 0.000000 0.000000 
-0.173559 -0.119740 -0.235384 -1.391476 -22.041821 -171.044643 -107.281160 83.489521 -104.949279 58.327971 -58.868082 -24.971718 0.000000 0.000000 0.000000 154.710260 -62.656208 -154.400101 137.384160 -44.962982 -173.500875 0.000000 0.000000 0.000000 13.645927 38.054727 12.756306 3.930233 -39.059014 26.978269 122.670799 -46.307518 -106.460513 0.000000 0.000000 0.000000 -1.040289 -17.880930 -85.295580 -3.825741 -31.949159 -82.527755 0.000000 0.000000 0.000000 16.096524 22.940230 -120.891603 27.743264 6.064897 31.448069 0.000000 0.000000 0.000000 
-0.306675 0.037698 -0.213846 -2.739934 -25.589225 -171.122562 -99.181211 84.016600 -97.005605 55.265967 -57.696240 -22.249819 0.000000 0.000000 0.000000 156.462613 -61.434915 -156.145405 137.982088 -45.744659 -172.988556 0.000000 0.000000 0.000000 13.893119 37.384716 13.811654 4.044046 -38.610438 26.318146 124.491440 -48.841330 -109.177261 0.000000 0.000000 0.000000 0.310668 -20.615705 -86.292610 -6.402413 -38.990613 -80.630486 0.000000 0.000000 0.000000 15.578714 24.141184 -121.968792 39.310143 5.861766 33.502064 0.000000 0.000000 0.000000 
-0.167499 -0.067318 -0.229311 -3.397620 -27.719648 -171.503058 -83.584747 84.412962 -81.877398 53.112910 -56.342111 -20.114113 0.000000 0.000000 0.000000 157.719204 -59.715114 -157.377913 138.867349 -47.547744 -171.772673 0.000000 0.000000 0.000000 14.517943 36.474740 14.152800 3.775293 -38.463070 25.579250 128.010449 -49.908725 -112.956330 0.000000 0.000000 0.000000 -5.378602 -23.994661 -79.288039 -7.562517 -45.163472 -75.925230 0.000000 0.000000 0.000000 17.855351 26.533982 -117.797923 47.249814 5.445736 35.851615 0.000000 0.000000 0.000000 
-0.181263 -0.072808 -0.247888 -3.701643 -29.034963 -171.805048 -86.427943 84.395627 -84.488566 55.323306 -56.400711 -21.429013 0.000000 0.000000 0.000000 158.090056 -59.477410 -157.197405 137.388244 -47.603471 -171.121333 0.000000 0.000000 0.000000 14.350367 36.433598 13.916508 3.227167 -38.977390 26.609589 130.215207 -49.404452 -114.413742 0.000000 0.000000 0.000000 -5.433937 -23.450543 -77.901149 -7.598578 -46.328422 -76.432938 0.000000 0.000000 0.000000 19.617604 24.755886 -116.423470 46.766872 6.653957 34.619582 0.000000 0.000000 0.000000 
-0.224301 -0.089346 -0.304869 -3.663582 -28.485910 -172.434737 -88.738876 84.511303 -86.089822 54.912976 -56.542256 -21.392127 0.000000 0.000000 0.000000 159.861493 -60.065988 -159.344188 138.908795 -46.546766 -172.015992 0.000000 0.000000 0.000000 15.527545 36.006766 16.220248 3.021240 -39.192636 25.277444 131.440843 -50.415651 -115.734933 0.000000 0.000000 0.000000 -9.874003 -22.182851 -75.698570 -6.691799 -46.281171 -73.993686 0.000000 0.000000 0.000000 23.740409 23.865478 -113.942090 40.582696 4.000338 42.956713 0.000000 0.000000 0.000000 
-0.251123 -0.082143 -0.275887 -2.386798 -24.501543 -172.576901 -95.343662 84.379214 -93.095861 55.920927 -57.619093 -22.845702 0.000000 0.000000 0.000000 162.413456 -62.052706 -161.954905 141.876389 -45.927739 -173.364777 0.000000 0.000000 0.000000 15.151620 36.846716 14.987453 2.970774 -39.832714 26.637859 128.038603 -47.482737 -112.334885 0.000000 0.000000 0.000000 -9.878555 -18.992278 -76.676093 -4.424074 -36.034166 -75.786290 0.000000 0.000000 0.000000 24.233260 21.518064 -112.452856 30.780422 3.938413 41.418930 0.000000 0.000000 0.000000 
-0.068441 0.001032 -0.162802 -2.291398 -23.595612 -172.832486 -102.954501 85.382002 -101.142076 54.152349 -58.691652 -22.934896 0.000000 0.000000 0.000000 163.875650 -63.199023 -163.295124 143.941783 -44.724331 -174.239574 0.000000 0.000000 0.000000 14.970298 37.135677 15.879623 2.992828 -40.460709 27.409477 125.671273 -45.671163 -108.605602 0.000000 0.000000 0.000000 -7.266891 -18.173743 -81.038521 -4.706201 -31.150164 -74.742180 0.000000 0.000000 0.000000 25.817912 20.337993 -112.808210 27.935375 3.190749 47.314172 0.000000 0.000000 0.000000 
